<?xml version="1.0" standalone="no"?>
<!DOCTYPE svg PUBLIC "-//W3C//DTD SVG 20010904//EN"
 "http://www.w3.org/TR/2001/REC-SVG-20010904/DTD/svg10.dtd">
<svg version="1.0" xmlns="http://www.w3.org/2000/svg"
 width="700.000000pt" height="700.000000pt" viewBox="0 0 700.000000 700.000000"
 preserveAspectRatio="xMidYMid meet">
<metadata>
Created by potrace 1.14, written by Peter Selinger 2001-2017
</metadata>
<g transform="translate(0.000000,700.000000) scale(0.100000,-0.100000)"
fill="#000000" stroke="none">
<path d="M3410 6536 c-108 -28 -195 -72 -455 -229 -39 -24 -235 -158 -247
-170 -7 -7 -31 -25 -53 -42 -59 -43 -118 -97 -235 -215 -137 -137 -146 -148
-343 -400 -24 -30 -155 -227 -204 -305 -244 -392 -584 -1090 -711 -1460 -26
-78 -94 -314 -107 -370 -22 -105 -85 -418 -89 -445 -3 -19 -15 -93 -26 -165
-28 -172 -28 -171 -35 -235 -3 -30 -8 -62 -10 -70 -2 -8 -6 -46 -10 -83 -3
-37 -8 -76 -10 -87 -2 -10 -7 -51 -10 -92 -4 -40 -8 -85 -10 -101 -19 -152
-26 -443 -13 -554 33 -293 200 -517 498 -672 175 -91 419 -168 680 -216 74
-14 146 -27 160 -30 13 -3 42 -7 65 -10 22 -3 47 -8 55 -10 8 -3 35 -7 59 -10
23 -3 55 -7 70 -9 14 -3 51 -8 81 -11 30 -4 62 -9 70 -10 17 -3 99 -12 185
-20 33 -4 76 -8 95 -10 19 -2 76 -7 125 -10 50 -3 115 -8 145 -10 142 -11 491
-19 855 -19 385 -1 516 4 628 24 29 5 67 12 85 15 77 12 97 17 204 44 166 43
277 84 423 157 295 146 495 339 628 607 185 372 238 806 150 1222 -8 39 -17
80 -19 93 -20 100 -110 328 -173 437 -230 399 -727 708 -1241 772 -83 10 -357
10 -435 0 -225 -30 -451 -101 -644 -203 -94 -50 -139 -75 -156 -86 -218 -155
-366 -300 -477 -468 -42 -63 -88 -137 -102 -165 l-27 -50 8 95 c14 184 9 404
-14 590 -9 74 -10 481 -1 550 4 30 10 75 13 100 10 73 55 230 84 295 27 58
116 185 130 185 3 0 40 -11 81 -24 41 -13 98 -27 125 -31 28 -4 61 -9 75 -12
87 -13 255 -4 415 24 50 8 104 17 120 20 88 14 262 65 300 87 64 38 123 103
136 150 10 36 8 167 -2 205 -2 8 19 30 50 52 145 101 221 213 221 323 0 65
-24 130 -93 256 -196 355 -295 500 -436 640 -132 130 -249 180 -436 186 -90 2
-126 -1 -195 -20z"/>
</g>
</svg>
