<?xml version="1.0" standalone="no"?>
<!DOCTYPE svg PUBLIC "-//W3C//DTD SVG 20010904//EN"
 "http://www.w3.org/TR/2001/REC-SVG-20010904/DTD/svg10.dtd">
<svg version="1.0" xmlns="http://www.w3.org/2000/svg"
 width="700.000000pt" height="700.000000pt" viewBox="0 0 700.000000 700.000000"
 preserveAspectRatio="xMidYMid meet">
<metadata>
Created by potrace 1.14, written by Peter Selinger 2001-2017
</metadata>
<g transform="translate(0.000000,700.000000) scale(0.100000,-0.100000)"
fill="#000000" stroke="none">
<path d="M3557 6934 c-1 -2 -27 -5 -58 -8 -144 -14 -267 -73 -649 -307 -388
-238 -765 -625 -1085 -1115 -54 -82 -106 -161 -116 -176 -11 -15 -19 -29 -19
-32 0 -2 -18 -33 -39 -68 -192 -316 -467 -881 -645 -1322 -74 -183 -137 -383
-181 -576 -27 -115 -48 -211 -52 -235 -2 -16 -8 -46 -13 -65 -9 -35 -53 -278
-65 -355 -3 -22 -8 -51 -10 -65 -10 -56 -54 -380 -60 -440 -4 -36 -9 -73 -11
-84 -2 -10 -6 -53 -10 -94 -3 -42 -7 -83 -9 -92 -3 -13 -11 -109 -21 -245 -5
-62 -5 -358 0 -380 2 -11 7 -42 10 -70 20 -148 99 -325 199 -441 168 -198 473
-359 865 -458 104 -27 223 -53 281 -62 38 -6 55 -10 91 -18 14 -3 41 -8 60
-10 19 -3 89 -14 155 -25 66 -11 143 -22 170 -26 62 -8 111 -14 150 -20 17 -2
57 -7 90 -10 33 -3 76 -8 95 -11 19 -2 66 -7 105 -9 38 -3 88 -7 110 -10 39
-4 191 -14 310 -20 464 -24 1347 -24 1470 -1 26 5 89 15 140 22 22 3 47 7 55
9 8 2 35 7 59 10 174 25 509 140 688 237 79 42 217 131 241 155 7 7 17 13 22
13 18 0 210 199 269 280 67 91 182 317 224 440 26 75 73 248 82 302 15 86 25
158 31 218 4 48 4 328 0 365 -2 17 -7 57 -10 90 -30 294 -173 686 -326 895
-132 180 -352 371 -571 497 -154 88 -412 187 -564 218 -235 47 -489 58 -686
30 -133 -19 -334 -65 -399 -92 -8 -3 -20 -7 -25 -8 -31 -7 -232 -95 -305 -133
-92 -49 -236 -140 -286 -181 -18 -14 -46 -37 -65 -51 -55 -42 -202 -191 -261
-265 -68 -86 -155 -219 -198 -302 -30 -61 -46 -81 -36 -45 27 96 28 500 1 702
-18 139 -25 487 -13 610 16 147 21 179 40 265 38 171 79 271 153 371 30 39 58
75 63 78 6 3 23 1 39 -5 163 -64 397 -89 608 -65 68 8 337 56 346 62 4 2 24 6
45 10 176 28 328 119 372 224 16 39 20 148 9 225 l-8 50 48 25 c71 37 184 153
224 230 29 57 34 75 34 140 0 96 -23 155 -131 343 -19 32 -34 60 -34 62 0 13
-240 398 -260 415 -3 3 -30 37 -61 75 -179 224 -355 320 -601 329 -37 1 -69 1
-71 0z"/>
</g>
</svg>
